
		<svg xmlns="http://www.w3.org/2000/svg" xmlns:xlink="http://www.w3.org/1999/xlink" version="1.1" width="3254.237288135593" height="2593.2203389830506">
			<rect fill="#000000" width="3254.237288135593" height="2593.2203389830506"/>
			<g transform="scale(12.711864406779661) translate(10, 10)">
				<defs id="SvgjsDefs2483"><linearGradient id="SvgjsLinearGradient2488"><stop id="SvgjsStop2489" stop-color="#b88746" offset="0"></stop><stop id="SvgjsStop2490" stop-color="#fdf5a6" offset="1"></stop></linearGradient><linearGradient id="SvgjsLinearGradient2491"><stop id="SvgjsStop2492" stop-color="#b88746" offset="0"></stop><stop id="SvgjsStop2493" stop-color="#fdf5a6" offset="1"></stop></linearGradient><linearGradient id="SvgjsLinearGradient2494"><stop id="SvgjsStop2495" stop-color="#b88746" offset="0"></stop><stop id="SvgjsStop2496" stop-color="#fdf5a6" offset="1"></stop></linearGradient></defs><g id="SvgjsG2484" featureKey="root" fill="#000000"></g><g id="SvgjsG2485" featureKey="symbol1" fill="url(#SvgjsLinearGradient2494)" transform="matrix(0.7610631346191636,0,0,0.7610631346191636,79.94663568842154,-16.89449168545261)"><g xmlns="http://www.w3.org/2000/svg"><path d="M28.596,55.417c-5.494,2.677-11.497,5.185-13.734,4.532c-0.582-0.168-1.535-0.657-2.353-0.959   c-1.702-0.622-3.8-0.377-6.158,1.42c-3.743,2.862-2.195,6.034-0.823,9.354c0.467-0.328,0.889-1.681,1.556-1.296   c1.633,2.928-3.404,6.881,0.497,8.956c2.649,1.41,5.964-1.402,9.421-3.938c4.817-3.529,10.315-5.052,15.181-6.212   c-0.953-1.332-1.791-2.996-2.45-4.934C29.028,60.268,28.515,57.719,28.596,55.417z"></path><path d="M95.759,46.991c0.201-1.12,0.225-2.209,0.229-3.336c0.013-1.561-0.196-3.115-0.59-4.622   c-0.828-3.158-2.328-6.271-4.393-8.806c-1-1.228-2.145-2.272-3.383-3.196c-1.702-1.262-3.587-2.297-5.531-3.251   c-4.2-2.06-8.84-1.741-13.339-1.082c-3.927,0.577-8.737,3.352-12.354,6.634c-4.685,4.247-7.898,10.14-11.749,14.156   c-2.616,2.724-10.572,7.27-11.771,7.756c-0.327,0.161-0.744,0.457-1.15,0.887c-0.005,0.006-0.008,0.013-0.013,0.018   c-1.353,1.503-1.344,5.502,0.019,9.51c1.187,3.489,3.055,6.054,4.889,6.8c0.041,0.005,0.074,0.009,0.097,0.01   c3.99-1.287,5.549-1.406,8.495-2.126c1.715-0.42,4.099-0.223,6.194-0.015c4.852,0.497,12.93-0.038,13.443-0.862   c0.617-0.704,0.426-0.426,0.358-1.868c-0.121-2.638,3.239-5.15,6.947-5.571c0.472-2.407,2.684-4.069,4.888-4.528   c1.631-0.34,3.125-0.045,4.217,0.757c0.346-0.531,0.822-0.997,1.433-1.366c1.061-0.64,2.511-1.002,4.088-1.018   c2.546-0.026,2.173,0.19,4.83,1.971C93.183,54.892,95.307,49.497,95.759,46.991z M64.312,30.1c-5.196,2.743-8.592,7.259-8.83,6.807   c-0.238-0.453,3.172-5.725,8.369-8.468c5.196-2.743,10.21-1.919,10.449-1.467C74.539,27.425,69.509,27.356,64.312,30.1z"></path></g></g><g id="SvgjsG2486" featureKey="text1" fill="url(#SvgjsLinearGradient2488)" transform="matrix(4.301436656731725,0,0,4.301436656731725,0.0000070986764093196175,30.01796904143832)"><path d="M12.34 21.94 c0.08 0.34 0.1 0.64 0.06 0.9 c-0.06 0.44 -0.32 0.78 -0.68 0.94 c-0.02 0.02 -0.02 0.02 -0.02 0.04 c-0.06 0.5 -0.36 0.86 -0.82 0.98 c-0.04 0.02 -0.08 0.02 -0.12 0.04 c-0.28 0.18 -0.6 0.3 -0.94 0.3 c-0.6 0 -1.18 -0.36 -1.46 -0.9 c-0.12 -0.22 -0.2 -0.46 -0.22 -0.72 c-0.58 -1.16 -1.46 -2.36 -2.72 -3.78 c-0.12 -0.12 -0.22 -0.24 -0.32 -0.36 c0.04 0.36 0.08 0.7 0.12 1.02 c0.08 0.44 0.16 0.88 0.24 1.28 c0.02 0.06 0.04 0.14 0.08 0.22 c0.06 0.14 0.12 0.28 0.16 0.48 l0.12 0.6 c0.1 0.42 -0.04 0.84 -0.34 1.08 c-0.1 0.08 -0.22 0.16 -0.34 0.24 c-0.02 0.3 -0.14 0.56 -0.36 0.74 c-0.44 0.36 -0.96 0.56 -1.5 0.56 c-0.2 0 -0.42 -0.02 -0.62 -0.08 l-0.04 0 c-0.7 0 -1.32 -0.42 -1.6 -1.06 c-0.22 -0.52 -0.28 -1.06 -0.32 -1.54 c0 -0.14 -0.02 -0.26 -0.04 -0.4 c-0.16 -1.44 -0.32 -2.76 -0.4 -4.1 c-0.1 -1.3 -0.18 -2.64 -0.22 -4.12 l-0.02 -0.22 c0 -0.28 -0.02 -0.58 -0.02 -0.88 l0 -0.02 c0 -0.24 0 -0.56 0.16 -0.88 c0.1 -0.22 0.26 -0.4 0.44 -0.52 l0.04 -0.04 c0.04 -0.08 0.08 -0.16 0.12 -0.22 c0.02 -0.06 0.06 -0.14 0.1 -0.2 c0.1 -0.22 0.26 -0.4 0.44 -0.52 l0.04 -0.04 c0.26 -0.5 0.78 -0.8 1.34 -0.8 s1.1 0.26 1.42 0.7 c0.24 0.34 0.32 0.72 0.24 1.1 c0.04 0.04 0.08 0.06 0.12 0.1 c0.12 0.12 0.18 0.28 0.18 0.46 l0 0.12 c0 0.42 0.02 0.84 0.02 1.24 c0.26 -0.1 0.48 -0.22 0.7 -0.32 c0.72 -0.34 1.56 -0.74 2.38 -1.18 c0.44 -0.24 0.84 -0.46 1.2 -0.68 c0.04 -0.02 0.1 -0.04 0.14 -0.08 c0.3 -0.18 0.72 -0.44 1.18 -0.44 c0.12 0 0.22 0.02 0.32 0.04 c0.34 0.1 0.6 0.32 0.78 0.62 c0.2 0.06 0.38 0.18 0.5 0.38 c0.14 0.26 0.16 0.56 0.02 0.84 c-0.22 0.4 -0.46 0.76 -0.76 1.08 c-0.48 0.86 -1.16 1.5 -1.94 2.06 c0.98 1.04 1.76 2.24 2.34 3.54 c0.36 0.82 0.64 1.62 0.82 2.4 z M11.4 23.22 c0.48 -0.14 0.42 -0.74 0.34 -1.14 c-0.2 -0.78 -0.46 -1.54 -0.8 -2.28 c-0.66 -1.52 -1.64 -2.88 -2.86 -4.02 c-0.12 -0.12 -0.32 0.02 -0.3 0.16 c-0.1 -0.08 -0.18 -0.16 -0.28 -0.24 c0.18 -0.1 0.34 -0.18 0.52 -0.28 c1.28 -0.72 2.6 -1.52 3.3 -2.84 c0.12 -0.24 -0.16 -0.46 -0.36 -0.3 l-0.06 0.06 c0 -0.32 -0.16 -0.62 -0.48 -0.7 c-0.4 -0.12 -0.84 0.24 -1.16 0.42 c-1.56 0.9 -3.52 1.86 -5.18 2.58 c-0.04 -0.74 -0.06 -1.46 -0.08 -2.2 l0 -0.14 c0 0 -0.02 -0.02 -0.02 0 c-0.14 0.84 -0.24 1.68 -0.32 2.54 c-0.06 0.02 -0.1 0.06 -0.16 0.12 l0.06 -1.8 c0.02 -0.46 0 -0.94 0.12 -1.34 c0.38 -1.08 -1.26 -1.74 -1.8 -0.76 c-0.04 0.08 -0.08 0.14 -0.1 0.22 c-0.42 0.1 -0.46 0.58 -0.44 0.94 c0 0.36 0.02 0.72 0.02 1.08 c0.06 1.38 0.12 2.74 0.22 4.1 s0.26 2.72 0.42 4.08 c0.06 0.6 0.06 1.2 0.3 1.76 c0.2 0.44 0.68 0.72 1.14 0.66 c0.56 0.2 1.16 0.08 1.64 -0.32 c0.14 -0.12 0.16 -0.32 0.12 -0.48 c-0.08 -0.46 -0.26 -0.9 -0.36 -1.28 c-0.08 -0.44 -0.18 -0.88 -0.24 -1.32 c-0.14 -1.12 -0.26 -2.24 -0.36 -3.34 c0.14 -0.06 0.3 -0.12 0.48 -0.2 c0.12 -0.04 0.22 -0.08 0.32 -0.12 c0.58 0.42 1.06 0.96 1.54 1.5 c1.1 1.2 2.16 2.56 2.9 4.06 c0 0.2 0.04 0.38 0.14 0.56 c0.16 0.34 0.52 0.56 0.9 0.56 c0.62 0 1 -0.52 0.94 -1.06 c-0.1 -1.16 -2.08 -4.68 -2.84 -5.62 c1.16 1.28 2.04 2.7 2.64 4.32 c0.14 0.4 0.76 1.72 0.12 1.98 c-0.04 0.02 -0.02 0.1 0.02 0.08 z M15.6 13.32 c-0.02 -0.1 -0.04 -0.22 -0.06 -0.32 c1.72 0.4 3.32 1.26 4.86 2.32 c-0.64 -0.08 -1.3 -0.16 -1.94 -0.24 c-0.46 -0.38 -1.12 -0.92 -1.72 -0.54 c-0.1 0.08 -0.16 0.2 -0.18 0.3 c-0.1 -0.02 -0.22 -0.02 -0.32 -0.04 c-0.08 -0.42 -0.18 -0.84 -0.28 -1.26 c-0.02 -0.18 -0.22 -0.18 -0.32 -0.08 c-0.02 -0.04 -0.02 -0.1 -0.04 -0.14 z M23.72 14.84 c0.5 0.36 0.72 0.94 0.62 1.62 c-0.02 0.14 -0.04 0.28 -0.04 0.4 c-0.06 0.46 -0.36 0.86 -0.72 1.08 c-0.14 0.64 -0.72 1.16 -1.32 1.16 l-0.08 0 c-0.1 -0.02 -0.18 -0.02 -0.28 -0.02 c0.06 0.12 0.14 0.26 0.2 0.38 c0.04 0.08 0.08 0.18 0.12 0.26 c0.56 1.14 1.2 2.42 1.02 3.8 c-0.06 0.44 -0.32 0.76 -0.7 0.92 l0 0.06 c-0.08 0.6 -0.56 1.02 -1.18 1.02 c-0.12 0 -0.26 -0.02 -0.38 -0.06 l-0.1 0 c-0.12 0 -0.24 -0.02 -0.36 -0.04 c-0.08 0.02 -0.14 0.02 -0.22 0.02 c-0.12 0 -0.24 -0.02 -0.36 -0.08 l-0.22 -0.1 l-0.08 -0.24 c-0.32 -0.84 -0.7 -1.72 -1.16 -2.76 c-0.22 -0.52 -0.62 -1.56 -0.62 -1.56 c-0.06 -0.1 -0.1 -0.2 -0.16 -0.3 c0.02 0.08 0.02 0.16 0.02 0.24 c0 0.44 -0.2 1.36 -0.32 1.96 c0 0.3 -0.02 0.56 -0.04 0.76 l-0.08 0.16 c-0.16 0.3 -0.36 0.56 -0.6 0.78 l-0.02 0 l0 0.04 l-0.08 0.16 c-0.16 0.3 -0.36 0.56 -0.6 0.78 c-0.26 0.2 -0.56 0.32 -0.88 0.32 c-0.36 0 -0.68 -0.16 -0.92 -0.44 c-0.04 -0.06 -0.08 -0.12 -0.12 -0.2 c-0.28 -0.14 -0.48 -0.42 -0.5 -0.76 c-0.06 -0.28 -0.08 -0.58 -0.08 -0.86 c0 -0.16 -0.02 -0.34 -0.04 -0.48 c-0.04 -0.38 -0.1 -0.8 -0.18 -1.3 c-0.16 -1.08 -0.12 -2.5 -0.88 -3.36 c-0.52 -0.6 -1.26 -1.12 -1 -2.04 c0.1 -0.38 0.34 -0.68 0.66 -0.84 c0.02 -0.04 0.02 -0.08 0.04 -0.14 c0 -0.04 0.02 -0.06 0.02 -0.1 c-0.08 -0.42 -0.16 -0.8 -0.24 -1.18 l-0.1 -0.38 l0.28 -0.22 c-0.3 -0.5 -0.36 -1.1 -0.1 -1.6 c0.1 -0.2 0.28 -0.44 0.56 -0.6 c0.04 -0.14 0.08 -0.26 0.14 -0.38 c0.18 -0.4 0.64 -0.86 1.66 -0.86 c0.42 0 0.84 0.08 1.16 0.14 l0.08 0.02 c0.14 0.02 0.26 0.06 0.38 0.14 c0.1 0.04 0.22 0.08 0.34 0.12 c0.02 0.02 0.02 0.02 0.04 0.02 c2.28 0.72 4.32 2.12 6.3 3.46 c0.2 0.14 0.36 0.34 0.46 0.58 c0.2 0.16 0.42 0.32 0.66 0.5 z M17.02 22.32 c0.08 -0.48 0.24 -0.68 0.18 -1.4 c-0.1 -1.2 -0.2 -2.4 -0.4 -3.56 l-0.16 0 c0.24 1.64 0.3 3.3 0.38 4.96 z M23.72 16.38 c0.06 -0.44 -0.06 -0.8 -0.38 -1.04 c-0.26 -0.2 -0.54 -0.42 -0.82 -0.62 c-0.04 -0.16 -0.12 -0.32 -0.28 -0.44 c-1.96 -1.32 -3.94 -2.68 -6.14 -3.38 c-0.02 0 -0.04 -0.02 -0.06 -0.02 c-0.14 -0.06 -0.28 -0.1 -0.42 -0.16 c-0.04 -0.04 -0.1 -0.08 -0.18 -0.08 c-0.66 -0.12 -1.86 -0.38 -2.24 0.36 c-0.22 0.46 0 1.02 0.38 1.34 c-0.12 0.18 -0.26 0.32 -0.42 0.44 c0.16 0.68 0.3 1.38 0.44 2.06 c-0.12 0 -0.24 0 -0.36 0.02 c-0.6 0 -0.84 1 -0.28 1.36 c0.18 0.12 0.4 0.24 0.6 0.32 c-0.16 0.02 -0.3 0.04 -0.46 0.06 c0.22 0.08 0.44 0.16 0.66 0.22 c0.08 0.02 0.12 0.08 0.12 0.14 l0.12 0 c0.04 0.24 0.08 0.46 0.12 0.7 l0.48 2.82 l0.18 1.32 c0.04 0.44 0 0.92 0.1 1.34 c0 0.22 0.2 0.36 0.36 0.32 c0.02 0.12 0.06 0.22 0.12 0.32 c0.24 0.28 0.64 0.26 0.9 0.04 c0.2 -0.16 0.34 -0.36 0.46 -0.6 c0 -0.1 0 -0.22 -0.02 -0.34 c0.06 -0.98 -0.04 -2 -0.1 -2.98 c-0.04 -0.92 -0.12 -1.84 -0.22 -2.74 c0.52 0.02 1.06 0.06 1.58 0.08 c0.1 0.18 0.22 0.38 0.34 0.56 l0 0.02 c0.12 0.2 0.22 0.4 0.32 0.62 c0.38 0.74 0.92 2.06 1.14 2.58 c0.4 0.92 0.8 1.86 1.16 2.8 c0.08 0.04 0.2 0 0.26 -0.06 c0 0.02 0.02 0.02 0.04 0.02 c0.18 0.08 0.36 0.08 0.54 0.06 c0.34 0.14 0.8 0.04 0.86 -0.4 c0.16 -1.3 -0.54 -2.56 -1.08 -3.7 c-0.42 -0.86 -0.9 -1.68 -1.44 -2.48 c0.94 0.08 1.88 0.16 2.82 0.22 c0.32 0.04 0.7 -0.3 0.74 -0.68 z M34.839999999999996 17.8 c0.02 0.02 0.02 0.04 0.02 0.06 l-0.1 0.68 c-0.02 0.04 -0.02 0.06 -0.04 0.1 c-0.14 0.24 -0.36 0.4 -0.6 0.5 l-0.06 0.38 c0 0.02 -0.02 0.04 -0.02 0.06 c0.04 0.12 0.1 0.26 0.12 0.4 c0.26 0.62 0.36 1.24 0.3 1.8 c-0.04 0.7 -0.36 1.36 -0.92 1.88 c-0.18 0.44 -0.48 0.84 -0.9 1.16 c-0.6 0.5 -1.4 0.78 -2.16 0.82 l-0.02 0 c-0.22 0.04 -0.46 0.04 -0.7 0.04 c-0.52 0 -1.06 -0.06 -1.6 -0.2 c-0.26 -0.08 -0.52 -0.16 -0.76 -0.26 c-0.1 0.18 -0.22 0.34 -0.36 0.46 c-0.22 0.2 -0.5 0.32 -0.8 0.32 s-0.6 -0.12 -0.8 -0.34 c-0.3 -0.3 -0.52 -0.7 -0.62 -1.1 c-0.14 -0.2 -0.22 -0.44 -0.26 -0.7 c-0.12 -0.98 -0.3 -1.92 -0.54 -3.04 l-0.02 -0.06 l-0.02 -0.06 c-0.22 -0.94 -0.36 -1.66 -0.46 -2.34 l-0.02 -0.12 l-0.02 -0.96 c0 -0.2 0 -0.4 0.04 -0.62 c0.1 -0.46 0.38 -0.84 0.72 -1.08 c0.04 -0.12 0.1 -0.26 0.16 -0.38 c-0.06 -0.06 -0.1 -0.12 -0.16 -0.18 c-0.28 -0.38 -0.94 -1.24 -0.68 -2.28 c0.12 -0.46 0.38 -0.84 0.74 -1.1 c0.28 -0.82 1 -1.36 1.88 -1.36 l0.18 0 c0.42 0.04 0.86 0.12 1.3 0.28 l0.06 0 c0.12 0 0.24 0.02 0.36 0.06 c1.2 0.36 2.24 0.84 3.16 1.46 c0.12 0.06 0.24 0.14 0.36 0.22 c0.02 -0.02 0.04 -0.04 0.08 -0.04 c0.06 -0.28 0.2 -0.54 0.4 -0.76 c0.32 -0.3 0.74 -0.48 1.16 -0.48 c0.84 0 1.5 0.62 1.6 1.52 c0.1 0.76 0.02 1.48 -0.06 2.18 c-0.04 0.28 -0.06 0.54 -0.08 0.8 c-0.04 0.44 -0.04 0.88 0 1.38 c0 0.2 0.04 0.4 0.1 0.62 c0 0.1 0.02 0.18 0.04 0.28 z M34.059999999999995 16.94 c-0.02 -0.48 -0.02 -0.96 0 -1.46 c0.08 -0.94 0.28 -1.92 0.16 -2.86 c-0.06 -0.54 -0.4 -0.98 -0.98 -0.98 c-0.52 0 -0.98 0.44 -0.98 0.98 c0.02 0.34 0.02 0.68 0.02 1.02 l-0.1 -0.1 c-0.4 -0.36 -0.84 -0.66 -1.28 -0.94 c-0.94 -0.62 -1.92 -1.06 -3 -1.38 c-0.12 -0.04 -0.22 -0.04 -0.3 -0.02 c-0.42 -0.14 -0.86 -0.26 -1.3 -0.3 c-0.68 -0.06 -1.26 0.36 -1.42 1.02 s0.2 1.24 0.56 1.74 c0.74 0.96 1.6 1.8 2.54 2.56 l0.3 0.24 c0.28 0.28 0.56 0.56 0.82 0.86 c0.68 0.7 1.32 1.42 1.94 2.16 c0.2 0.24 0.4 0.48 0.58 0.72 c0.04 0.12 0.1 0.22 0.14 0.32 c0.08 0.16 0.26 0.54 0.16 0.76 c0 0.06 0 0.12 -0.06 0.18 c-0.16 0.24 -0.56 0.28 -0.82 0.3 c-0.44 0.04 -0.86 0.04 -1.28 0 c-0.24 -0.02 -0.48 -0.06 -0.72 -0.14 c-0.24 -0.18 -0.46 -0.4 -0.66 -0.6 c-0.36 -0.38 -0.6 -0.88 -0.78 -1.36 c-0.46 -1.32 -0.52 -2.74 -0.94 -4.06 c-0.16 -0.48 -0.56 -0.66 -1.04 -0.6 c-0.4 0.06 -0.7 0.44 -0.78 0.8 c-0.12 0.58 0 1.2 0.08 1.76 c0.08 0.64 0.16 1.28 0.32 1.9 c0.3 1.1 0.52 2.22 0.64 3.34 c0.04 0.2 0.1 0.38 0.22 0.52 c0.06 0.36 0.26 0.7 0.48 0.92 c0.2 0.2 0.52 0.2 0.72 0 c0.26 -0.22 0.4 -0.54 0.48 -0.88 c0.38 0.24 0.8 0.42 1.24 0.52 c0.64 0.18 1.4 0.26 2.08 0.16 l0.06 0 c1.26 -0.06 2.62 -1 2.66 -2.3 c0.08 -0.52 -0.04 -1.06 -0.26 -1.56 c-0.12 -0.54 -0.4 -1.04 -0.76 -1.5 c-0.52 -0.66 -1.12 -1.28 -1.7 -1.9 c-0.6 -0.66 -1.24 -1.3 -1.88 -1.92 c-0.28 -0.26 -0.54 -0.52 -0.82 -0.78 c0.52 0.12 1.06 0.3 1.56 0.52 c0.96 0.44 1.84 1.06 2.42 1.92 c0.02 0 0.02 0.02 0.04 0.02 c0.12 0.94 0.46 2.26 1.44 2.02 c0.28 -0.08 0.44 -0.38 0.36 -0.64 c-0.06 -0.34 -0.14 -0.64 -0.16 -0.98 z M27.979999999999997 18.759999999999998 c0.06 0.24 0.14 0.46 0.22 0.68 c0.18 0.52 0.38 0.88 0.64 1.16 c0.14 0.14 0.32 0.32 0.48 0.44 c0.16 0.04 0.32 0.08 0.48 0.08 c0.1 0.02 0.2 0.02 0.3 0.02 c-0.08 -0.08 -0.14 -0.18 -0.24 -0.28 c-0.62 -0.74 -1.26 -1.44 -1.88 -2.1 z M42.519999999999996 16.94 c0.18 0.3 0.22 0.66 0.14 1 c-0.12 0.42 -0.42 0.74 -0.84 0.86 c-0.32 0.84 -0.76 1.12 -1.32 1.12 c-0.08 0 -0.18 -0.02 -0.26 -0.02 c-0.12 -0.02 -0.24 -0.06 -0.34 -0.08 c-0.06 -0.02 -0.14 -0.06 -0.18 -0.06 c-0.26 -0.02 -0.48 -0.04 -0.66 -0.06 c-0.42 -0.02 -0.8 -0.04 -1.16 -0.04 l-0.08 0 c-0.48 0 -0.88 0.02 -1.24 0.04 c-0.1 0 -0.2 0.02 -0.32 0.02 c-0.16 0.02 -0.34 0.04 -0.54 0.04 s-0.4 -0.02 -0.56 -0.08 c-0.36 -0.1 -0.6 -0.38 -0.66 -0.72 c-0.06 -0.36 0.22 -1.14 0.52 -1.36 c0.06 -0.32 0.26 -0.62 0.56 -0.76 c0.08 -0.04 0.18 -0.08 0.26 -0.12 c0.1 -0.22 0.28 -0.42 0.48 -0.52 c0.52 -0.28 1.06 -0.32 1.56 -0.36 c0.44 -0.04 0.82 -0.06 1.18 -0.06 l0.1 0 c0.18 -0.02 0.36 -0.02 0.54 -0.02 c0.58 0 1.24 0.04 1.86 0.28 c0.18 0.08 0.32 0.22 0.4 0.38 c0.24 0.12 0.44 0.3 0.56 0.52 z M42.22 17.82 c0.14 -0.5 -0.18 -0.94 -0.64 -1.06 c0.02 -0.12 -0.06 -0.24 -0.2 -0.3 c-0.7 -0.28 -1.54 -0.26 -2.3 -0.24 c-0.38 0.02 -0.78 0.04 -1.16 0.06 c-0.48 0.04 -0.96 0.08 -1.38 0.3 c-0.24 0.12 -0.36 0.4 -0.34 0.64 c-0.06 0.04 -0.12 0.08 -0.16 0.1 c-0.34 0.24 -0.32 0.76 0.1 0.88 s0.88 0.02 1.28 0 c0.42 -0.02 0.84 -0.02 1.26 -0.02 c0.42 -0.02 0.84 0 1.26 0.04 c0.24 0 0.46 0.02 0.68 0.04 c0.16 0.02 0.38 0.12 0.56 0.14 c0.46 0.08 0.92 -0.1 1.04 -0.58 z M50.279999999999994 17.54 c0.5 0.08 1.2 0.12 1.88 0.04 c0 0.02 0.42 -0.02 0.42 0 c-0.12 0.02 -0.64 0.1 -0.76 0.12 c-0.78 0.08 -1.6 -0.04 -2.38 -0.16 c-0.08 0 -0.14 -0.02 -0.22 -0.04 c-0.02 -0.04 -0.02 -0.1 -0.04 -0.16 c0.38 0.08 0.74 0.16 1.1 0.2 z M51.31999999999999 14.86 c0.46 0.28 0.98 0.56 1.26 0.98 c0.04 0.04 0.06 0.08 0.08 0.12 c-0.06 0.02 -0.1 0.02 -0.16 0.04 c-0.12 0.02 -0.26 0.04 -0.4 0.04 c-0.68 0.06 -1.36 -0.02 -2.02 -0.16 c-0.44 -0.1 -0.86 -0.22 -1.28 -0.36 c-0.16 -0.78 -0.36 -1.54 -0.56 -2.3 c0.46 0.2 0.9 0.42 1.34 0.64 c0.58 0.32 1.16 0.66 1.74 1 z M49.279999999999994 21.06 c-0.02 -0.14 -0.02 -0.26 -0.04 -0.4 c0.02 0 -0.02 -0.24 0 -0.26 c0.02 0.12 0.1 0.5 0.12 0.62 c0.14 0.66 0.22 1.34 -0.06 1.96 c-0.06 0.06 -0.12 0.1 -0.2 0.14 c-0.02 -0.02 -0.02 -0.04 -0.04 -0.06 c0.32 -0.6 0.28 -1.34 0.22 -2 z M54.72 15.66 c0.14 0.86 -0.18 1.4 -0.5 1.74 c-0.08 0.14 -0.2 0.28 -0.32 0.42 c-0.1 0.22 -0.24 0.42 -0.38 0.56 c-0.5 0.8 -1.4 1.22 -2.7 1.22 c-0.2 0 -0.38 0 -0.56 -0.02 c0.1 0.58 0.2 1.16 0.24 1.74 c0.08 0.68 0.04 1.22 -0.12 1.68 c-0.14 0.46 -0.4 0.88 -0.78 1.2 c-0.14 0.38 -0.4 0.72 -0.72 1 c-0.14 0.12 -0.52 0.4 -0.98 0.4 c-0.3 0 -0.58 -0.14 -0.78 -0.38 c-0.04 -0.04 -0.08 -0.08 -0.1 -0.14 c-0.14 -0.04 -0.24 -0.14 -0.32 -0.26 c-0.2 -0.32 -0.24 -0.66 -0.28 -0.96 c-0.02 -0.06 -0.02 -0.12 -0.02 -0.16 l-0.5 -3.1 c-0.12 -0.68 -0.22 -1.4 -0.32 -2.14 c-0.54 -0.2 -1.06 -0.44 -1.56 -0.72 c-0.28 -0.14 -0.42 -0.44 -0.34 -0.74 c0.02 -0.06 0.04 -0.12 0.08 -0.18 c-0.02 -0.04 -0.04 -0.08 -0.04 -0.14 c-0.14 -0.42 -0.08 -0.88 0.12 -1.24 c0.12 -0.22 0.32 -0.4 0.54 -0.52 c0.02 -0.16 0.08 -0.32 0.16 -0.46 c0 0 0.02 -0.02 0.02 -0.04 c-0.14 -0.48 -0.3 -0.96 -0.46 -1.4 c-0.1 -0.3 -0.08 -0.64 0.06 -0.92 c0.1 -0.18 0.22 -0.34 0.4 -0.46 c0.04 -0.16 0.14 -0.3 0.26 -0.42 c0 -0.02 0.02 -0.06 0.04 -0.1 c0.1 -0.18 0.22 -0.34 0.4 -0.46 c0.06 -0.22 0.2 -0.4 0.4 -0.54 c0.34 -0.24 0.74 -0.36 1.2 -0.36 c0.48 0 1.02 0.14 1.6 0.44 c0.7 0.36 1.36 0.78 1.96 1.18 c1.22 0.8 2.46 1.76 3.66 2.84 c0.22 0.22 0.38 0.48 0.4 0.76 c0.12 0.24 0.2 0.46 0.24 0.68 z M53.72 17 c0.3 -0.28 0.46 -0.68 0.38 -1.24 c-0.04 -0.2 -0.12 -0.4 -0.24 -0.6 c0.02 -0.16 -0.04 -0.32 -0.2 -0.46 c-1.14 -1.02 -2.32 -1.96 -3.58 -2.8 c-0.62 -0.4 -1.24 -0.8 -1.9 -1.14 c-0.64 -0.32 -1.5 -0.58 -2.16 -0.12 c-0.12 0.1 -0.22 0.24 -0.2 0.42 c-0.3 0.1 -0.54 0.42 -0.42 0.76 c0.3 0.86 0.56 1.74 0.8 2.62 l-0.12 -0.06 c-0.36 -0.14 -0.82 0.1 -1 0.4 c-0.22 0.38 -0.12 1 0.32 1.2 s0.88 0.4 1.34 0.58 c0.02 0.12 0.06 0.22 0.08 0.34 c-0.6 -0.22 -1.2 -0.46 -1.78 -0.74 c-0.04 -0.02 -0.06 0.02 -0.04 0.04 c0.6 0.32 1.22 0.6 1.84 0.84 c0.12 0.82 0.24 1.66 0.38 2.48 c0.1 0.7 0.22 1.38 0.32 2.06 c0.06 0.34 0.12 0.68 0.18 1.04 c0.04 0.28 0.04 0.64 0.2 0.88 c0.02 0.02 0.02 0.02 0.02 0 c0.08 -0.24 0 -0.54 -0.02 -0.8 c-0.06 -0.34 -0.1 -0.68 -0.14 -1.04 c-0.04 -0.2 -0.06 -0.4 -0.08 -0.62 c0.06 0.36 0.14 0.7 0.24 1.02 c0.02 0.26 0.06 0.52 0.1 0.76 c0.04 0.36 0.04 0.74 0.26 1.02 c0.24 0.3 0.66 0.08 0.88 -0.1 c0.28 -0.26 0.5 -0.58 0.6 -0.92 c0.14 -0.46 0.14 -0.96 0.1 -1.44 c-0.1 -0.98 -0.3 -1.98 -0.48 -2.96 c-0.04 -0.22 -0.1 -0.46 -0.14 -0.7 c0.18 0.04 0.36 0.06 0.54 0.1 c1.24 0.2 3.2 0.48 3.92 -0.82 z"></path></g><g id="SvgjsG2487" featureKey="text3" fill="url(#SvgjsLinearGradient2491)" transform="matrix(0.7655767392516601,0,0,0.7655767392516601,48.99221046387519,153.77769727629368)"><path d="M10.78 16.44 c4.02 -1.96 4.4 -4.82 4.32 -5.22 c-0.08 -0.38 -0.58 -3.88 -6.94 -1.48 c-8.8 3.38 -10.84 9.4 -10.76 10.04 c0.06 0.56 1.24 2.54 2.14 2.72 c1.98 0.26 5.9 -1.6 8.16 -2.46 c1.16 -0.44 1.76 -0.1 1.76 -0.1 s-2.74 1.52 -4.72 3.34 c-1.9 1.72 -2.92 3.32 -2.96 3.82 c-0.06 0.44 0.64 2.06 1.88 2.24 c1.66 0.3 4.08 -1.22 5.36 -2.8 c2.7 -3.14 2.64 -5.46 2.3 -6.6 c0.3 -0.16 1.18 -0.78 1.8 -1.38 c0.26 -0.22 0.46 -1 0.46 -1 l-2.76 1.58 c-0.38 -0.34 -1.02 -0.68 -2.52 -0.46 c-3.56 0.4 -8.62 3.06 -9.56 1.84 c-0.24 -0.28 1.74 -4.32 6.34 -7.16 c7.08 -4.36 9.24 -2.94 9.18 -2.68 c-0.52 2.78 -5.3 4.52 -5.32 4.86 c-0.06 0.4 0.86 1.4 1.84 0.9 z M5.32 24.6 c2.02 -1.96 4.82 -3.7 4.82 -3.7 s0.22 1.86 -1.76 3.92 c-3.28 3.3 -5.34 2.64 -5.34 2.64 s0.94 -1.5 2.28 -2.86 z M28.608 17.16 c0.62 -0.68 0 -1.18 0.02 -0.98 c0.02 0.18 -2.64 2.34 -2.64 2.34 c2.18 -5.12 3.36 -11.9 -2.94 -12.3 c-3.42 -0.22 -11.58 5.6 -11.16 14.12 c0.14 2.86 2.36 3.3 2.36 3.3 c0.04 -0.04 -0.28 2.5 1.3 3.64 c1.06 0.74 2.98 0.36 3.64 0.04 c3 -1.4 5.52 -6.56 5.52 -6.56 s3.28 -2.92 3.9 -3.6 z M23.748 20.46 c0 0 -2.2 1.8 -4.38 2.62 c-1.64 0.64 -3.34 0.42 -3.34 0.42 s0.38 -4 1.78 -6.82 c1.16 -2.26 3.06 -2.72 3.06 -2.72 s-0.26 -0.22 -1.34 0 c-5.14 1.08 -5.22 8.86 -5.22 8.86 c-2.28 -3.32 2.9 -15.9 8.8 -15.9 c5.06 0 3.44 6.48 0.64 13.54 z M16.968 26.82 c-1.32 -0.18 -0.98 -2.76 -0.98 -2.76 s1.76 0.04 3.44 -0.42 c1.62 -0.44 3.14 -1.36 3.14 -1.36 s-3.22 4.88 -5.6 4.54 z  M33.443999999999996 14.6 c0 0 -0.52 0.16 -0.78 -0.78 c-0.26 -0.92 2.06 -4.66 6.88 -7.22 c5.04 -2.7 10.24 -1.92 12.4 1.56 c2.92 4.7 -6.14 19.6 -14.42 18.58 c-1.88 -0.24 -3.76 -2.24 -3.14 -5.36 c0.98 -5.02 5.7 -9.36 8.62 -11.02 c1.28 -0.7 2.2 -0.16 2.2 -0.16 s-2.5 3.1 -4.38 8.18 c-1.08 2.94 -0.94 5.38 -0.94 5.38 s-1.26 0.74 -2.04 -0.5 c-0.4 -0.6 0.12 -3.36 1.4 -6.14 c1.4 -2.98 3.62 -6.12 3.62 -6.12 s-4.36 2.88 -6.6 6.92 c-2.02 3.64 -1.98 6.66 1.12 7.4 c4.8 1.14 16.78 -12.58 13.64 -17.16 c-1.54 -2.22 -5.58 -2 -9.58 -0.48 c-6.96 2.66 -8 6.92 -8 6.92 z M63.992 11.68 c0 0 1.76 -4.04 3.46 -6.9 c0.2 -0.32 -0.64 -0.56 -0.86 -0.56 c-4.42 -0.38 -10.56 9.2 -10.56 9.2 s-4.14 1.32 -5.12 3.62 c-0.98 2.22 1.46 7 1.58 6.92 c0.24 -0.16 1.12 -2.68 2 -4.52 c1.16 -2.52 2.44 -4.84 2.44 -4.84 s0.42 -0.12 1.7 -0.44 c1.4 -0.32 2.22 -0.44 2.22 -0.44 s-6.2 12.3 -3.14 14.3 c0.8 0.5 1.62 0.12 1.62 0.12 s-0.58 -0.62 -0.36 -2.02 c0.9 -5.42 4.3 -12.74 4.3 -12.74 s8.8 -1.38 9.7 -1.66 c0.92 -0.28 1.3 -1.52 1.3 -1.52 z M63.251999999999995 6.420000000000002 c1.26 -1.1 2.64 -1.42 2.5 -1.3 c-0.28 0.24 -1.24 1.44 -2.16 3.04 c-1.12 1.94 -2.12 3.82 -2.12 3.82 l-3.68 0.98 s1.7 -3.34 5.46 -6.54 z M51.492 17.94 c0.92 -2.26 3.8 -3.08 3.8 -3.08 s-1.08 2.02 -1.98 4.1 c-0.72 1.64 -1.3 3.34 -1.3 3.34 s-1.1 -2.92 -0.52 -4.36 z M62.44 22.06 c0 0 -1.82 0.9 -2.38 -2.7 c-0.9 -5.52 2.82 -11.9 7.08 -10.7 c0.76 0.2 1.52 0.9 1.62 1.58 c0.24 1.98 -0.68 6.3 -0.68 6.3 s3.58 -7.88 6.88 -6.44 c1.76 0.8 0.7 4.04 -0.34 6.72 c-0.66 1.78 -1.2 3.5 -1.2 3.5 s2.6 -5.36 5.5 -6.6 c0.82 -0.3 1.34 -0.08 1.76 0.3 c1.04 1 -1.04 4.9 -1.78 7.7 c-0.46 1.8 -0.1 2.74 -0.1 2.74 s-1.74 0.14 -2.1 -0.94 c-0.5 -1.44 0.7 -4.16 1.82 -6.56 c0.46 -1.04 0.82 -2.26 0.86 -2.28 c0 0 -1.66 0.48 -3.44 3.34 c-2.12 3.34 -3.94 8.06 -3.94 8.06 s-2.02 0.22 -2.22 -0.82 c-0.42 -1.8 5.78 -13.82 4.56 -14.74 c-0.96 -0.7 -4.34 3.32 -6.5 9.38 c-1.5 4.24 -2.16 8.86 -2.16 8.86 s-1.56 -0.06 -1.92 -0.82 c-0.92 -2.08 4.5 -17.28 3.38 -18.74 c-0.14 -0.24 -2.96 0 -4.52 3.98 c-2.3 5.64 -0.18 8.88 -0.18 8.88 z M99.268 7.859999999999999 c0 0 -0.86 -0.46 -1.36 -0.44 c-0.64 0.04 -1.86 -0.16 -5.16 4.3 c-2.5 3.38 -4.62 7.08 -6.52 10.68 c2.06 -4.94 3.1 -6.94 3.72 -8.28 c1.56 -3.34 3.16 -7.38 0.32 -9.12 c-2.3 -1.4 -8.42 0.88 -10.44 6.06 c-3.46 8.92 5.5 8.7 5.5 8.7 s-4.62 9.62 -3.36 10.84 c0.78 0.74 2.08 0.9 2.04 0.62 c-0.44 -3.22 6.6 -14.94 9.08 -18.26 c1.32 -1.76 2.28 -2.8 2.94 -3.4 l-0.26 0.42 c-1.5 2.64 -6.62 13.12 -5.4 14.2 c1.06 0.98 2.2 0.9 2.26 0.6 c0.04 -0.14 -0.44 -0.28 0.22 -2.82 c0.3 -1.18 1.88 -6.38 4.56 -11.36 c0.62 -1.18 1.86 -2.74 1.86 -2.74 z M89.648 5.359999999999999 c1.82 0.64 -0.06 4.62 -1.58 8.04 c-1.48 3.26 -2.66 5.74 -2.66 5.74 s-7.56 0.62 -4.5 -7.24 c1.62 -4.2 6.48 -7.32 8.74 -6.54 z  M112.624 15.94 c0 0 1.7 -1.66 2.72 -3.82 c1.12 -2.36 1.54 -5.22 1.24 -5.38 c-0.26 -0.16 -1.92 -0.42 -5.42 4.92 c-3.82 5.88 -5.86 12.58 -3.48 13.74 c2.28 1.1 5.12 -0.96 6.68 -3.04 c0.8 -1.08 1.36 -2.04 1.36 -2.04 c0.04 0.28 0.16 0.9 -0.08 1.58 c-0.22 0.68 -3.7 5.3 -7.3 4.16 c-0.98 -0.3 -2.86 -1.4 -3.36 -3.58 c-0.96 -4.2 5.16 -16.26 9.86 -16.64 c1 -0.1 2.2 0.48 3.06 1.68 c0.88 1.18 -1.36 7.1 -2.78 8.2 s-2.5 0.22 -2.5 0.22 z M126.692 25.28 c3.52 1.36 6.3 -0.48 6.34 -0.5 c-0.06 0.06 -6.72 8.78 -12.74 -5.04 c0 -0.02 -1.18 2.7 -1.98 5.44 c-0.66 2.22 -0.5 3.1 -0.5 3.1 s-1 0.16 -1.5 -1.28 c-0.4 -1.08 2.94 -10.36 5.32 -13.9 c0.72 -1.12 2.76 -0.48 2.76 -0.48 s-0.98 0.28 -1.58 1.36 c-1.1 1.92 -2.34 5.28 -2.34 5.28 s4.4 1.04 8.56 -3.5 c2.36 -2.6 2.18 -5.4 2.1 -5.6 c-0.44 -0.96 -3.8 -3.02 -8.54 -0.54 c-8.22 4.32 -6.58 8.34 -6.58 8.34 c-3.2 -5.34 8.38 -14.74 14.26 -9.9 c0.8 0.66 2.06 2 2.32 3.86 c0.08 0.76 -0.44 3.34 -3.22 6.14 c-2.52 2.54 -6.94 3.12 -6.94 3.12 s1.44 3 4.26 4.1 z M139 8.58 c0 0 0.24 -0.44 0.42 -1.22 c0.2 -0.62 -7.16 0.2 -9.36 2.48 c-2.24 2.24 -0.06 4.54 -0.06 4.54 s-1.44 -2.44 0.52 -3.62 c3.1 -1.84 6.8 -2 6.8 -2 s-5.32 11.92 -5.64 16.24 c-0.24 2.78 1.54 2.58 1.54 2.58 s-0.3 -1.1 0.28 -3.16 c1.86 -7.04 5.5 -15.84 5.5 -15.84 z M149.468 16.44 c4.02 -1.96 4.4 -4.82 4.32 -5.22 c-0.08 -0.38 -0.58 -3.88 -6.94 -1.48 c-8.8 3.38 -10.84 9.4 -10.76 10.04 c0.06 0.56 1.24 2.54 2.14 2.72 c1.98 0.26 5.9 -1.6 8.16 -2.46 c1.16 -0.44 1.76 -0.1 1.76 -0.1 s-2.74 1.52 -4.72 3.34 c-1.9 1.72 -2.92 3.32 -2.96 3.82 c-0.06 0.44 0.64 2.06 1.88 2.24 c1.66 0.3 4.08 -1.22 5.36 -2.8 c2.7 -3.14 2.64 -5.46 2.3 -6.6 c0.3 -0.16 1.18 -0.78 1.8 -1.38 c0.26 -0.22 0.46 -1 0.46 -1 l-2.76 1.58 c-0.38 -0.34 -1.02 -0.68 -2.52 -0.46 c-3.56 0.4 -8.62 3.06 -9.56 1.84 c-0.24 -0.28 1.74 -4.32 6.34 -7.16 c7.08 -4.36 9.24 -2.94 9.18 -2.68 c-0.52 2.78 -5.3 4.52 -5.32 4.86 c-0.06 0.4 0.86 1.4 1.84 0.9 z M144.00799999999998 24.6 c2.02 -1.96 4.82 -3.7 4.82 -3.7 s0.22 1.86 -1.76 3.92 c-3.28 3.3 -5.34 2.64 -5.34 2.64 s0.94 -1.5 2.28 -2.86 z M165.396 10.84 c0.38 -1.14 -0.02 -1.64 -0.3 -2.46 c-0.18 -0.6 -0.54 -1.32 -1.12 -1.84 c-3.3 -3.26 -11.58 -0.34 -13.6 4.36 c-0.88 2.02 0.38 3.22 0.64 2.9 c0.06 -0.08 -1.2 -0.74 0.18 -2.56 c2.74 -3.56 10.76 -5.54 12.82 -3.16 c0.8 0.9 -0.34 3.16 -2.46 5.48 c-2.32 2.54 -5.32 3.52 -5.32 3.52 s1.18 -2.06 1.28 -2.68 c0.06 -0.58 -0.42 -1.66 -0.72 -1.92 c-0.42 -0.44 -4.26 0.32 -5.1 3.64 c-0.52 2.08 1.88 2.64 1.88 2.64 s-1.5 3.74 -1.38 5.32 c0.08 1.06 1.26 1.78 1.38 1.66 c0.1 -0.14 -0.32 -0.62 -0.18 -1.32 c0.48 -2.42 1.98 -5.5 1.98 -5.5 s7.48 -0.98 10.02 -8.08 z M156.33599999999998 13.42 c0.1 0.12 -0.68 0.98 -1.22 2.18 c-0.48 0.9 -0.9 1.82 -0.9 1.82 s-2.02 -0.1 -1.94 -0.7 c0.42 -3.16 3.86 -3.56 4.06 -3.3 z M180.08399999999997 26.84 c0 0 0.64 -1.56 -0.72 -1.76 c-4.44 -0.6 -9.42 -0.12 -9.42 -0.12 s1.78 -8.36 6.1 -16.36 c0.42 -0.74 1.08 -1.3 1.08 -1.3 c0.32 0 -1.06 -0.72 -1.82 -0.16 c-1.54 1.06 -7.48 14.94 -10.06 16.8 c-0.66 0.44 4.86 -11.48 4.6 -13.44 c-0.1 -1.2 -0.74 -2.4 -3.16 -1.7 c-2.52 0.8 -5.86 7.72 -5.44 11.26 c0.18 1.62 1.16 1.8 1.16 1.8 s-0.34 -1.66 -0.06 -2.86 c0.76 -3.54 2.22 -6.74 3.58 -8.42 c1.16 -1.34 2.42 -1.56 2.58 -1.2 c0.78 1.36 -5.5 12.6 -4.88 14.92 c0.18 0.66 1.16 1.02 1.94 0.78 c1.18 -0.36 4.1 -5.64 4.1 -5.64 l-1.66 5.88 s-2.8 1.04 -3.04 2.68 c-0.2 1.62 2.5 5.02 2.78 4.58 c0.4 -0.64 1.66 -5.68 1.72 -5.68 c1.58 -0.42 5.5 -0.54 9.16 -0.26 c1.18 0.04 1.46 0.2 1.46 0.2 z M165.74399999999997 28.54 c0.38 -0.94 1.82 -1.22 1.82 -1.22 l-0.8 3.74 s-1.36 -1.82 -1.02 -2.52 z M175.57199999999997 23.34 c0 0 -0.44 -0.04 -0.62 -0.5 c-0.08 -0.22 0.46 -3.3 1.72 -6.38 c1.14 -2.74 2.74 -4.86 3.34 -5.06 c0.86 -0.28 1.62 0.6 1.62 0.6 s-2.2 1.98 -4.04 5.88 c-1.56 3.3 -2.02 5.46 -2.02 5.46 z M175.23199999999997 24 c-0.58 -0.22 -1.08 0.16 -1.22 0.6 s-0.08 0.98 0.4 1.22 c0.42 0.2 0.88 -0.02 1.12 -0.3 c0.38 -0.48 0.26 -1.3 -0.3 -1.52 z"></path></g>
			</g>
		</svg>
	